<svg width="80" height="80" viewBox="0 0 80 80" fill="none" xmlns="http://www.w3.org/2000/svg">
  <g filter="url(#filter0_d_2330_39976)">
  <path d="M59.2673 42.4525C57.8275 42.4525 56.6863 41.1905 56.8443 39.7154C56.9672 38.5779 57.8978 37.6537 59.039 37.547C59.7589 37.4759 60.4086 37.7248 60.9002 38.1691C60.9529 38.2224 61.0407 38.2224 61.0758 38.1691L61.7781 37.4582C61.8308 37.4048 61.8308 37.316 61.7781 37.2626C61.0231 36.5517 59.9521 36.1607 58.7932 36.3029C57.1428 36.5162 55.8084 37.8847 55.6152 39.5732C55.3694 41.8304 57.0901 43.7321 59.2673 43.7321C60.233 43.7321 61.1109 43.3589 61.7781 42.7368C61.8308 42.6835 61.8308 42.5946 61.7781 42.5413L61.0758 41.8304C61.0231 41.7771 60.9529 41.7771 60.9002 41.8304C60.4612 42.2036 59.8818 42.4525 59.2673 42.4525Z" fill="white" fill-opacity="0.4"/>
  <path d="M67.4489 42.4525C66.0092 42.4525 64.8679 41.1905 65.0259 39.7154C65.1488 38.5779 66.0794 37.6537 67.2207 37.547C67.9406 37.4759 68.5902 37.7248 69.0818 38.1691C69.1345 38.2224 69.2223 38.2224 69.2574 38.1691L69.9597 37.4582C70.0124 37.4048 70.0124 37.316 69.9597 37.2626C69.2047 36.5517 68.1337 36.1607 66.9749 36.3029C65.3244 36.5162 63.99 37.8847 63.7969 39.5732C63.5511 41.8304 65.2717 43.7321 67.4489 43.7321C68.4146 43.7321 69.2925 43.3589 69.9597 42.7368C70.0124 42.6835 70.0124 42.5946 69.9597 42.5413L69.2574 41.8304C69.2047 41.7771 69.1345 41.7771 69.0818 41.8304C68.6429 42.2036 68.081 42.4525 67.4489 42.4525Z" fill="white" fill-opacity="0.4"/>
  <path d="M53.8074 43.7144H52.8944C52.8241 43.7144 52.7539 43.6611 52.7539 43.5723V42.648C52.7539 42.577 52.8066 42.5059 52.8944 42.5059H53.8074C53.8776 42.5059 53.9478 42.5592 53.9478 42.648V43.5723C53.9478 43.6434 53.8776 43.7144 53.8074 43.7144Z" fill="white" fill-opacity="0.4"/>
  <path d="M47.5563 36.2681C45.5196 36.2681 43.8691 37.9388 43.8691 40.0005C43.8691 42.0622 45.5196 43.7329 47.5563 43.7329C49.5931 43.7329 51.2435 42.0622 51.2435 40.0005C51.2435 37.9388 49.5931 36.2681 47.5563 36.2681ZM47.5563 42.4887C46.2044 42.4887 45.1158 41.3868 45.1158 40.0182C45.1158 38.6497 46.2044 37.5477 47.5563 37.5477C48.9083 37.5477 49.9969 38.6497 49.9969 40.0182C49.9969 41.369 48.9083 42.4887 47.5563 42.4887Z" fill="white" fill-opacity="0.4"/>
  <path d="M31.3855 36.374H28.7342C28.664 36.374 28.5938 36.4273 28.5938 36.5162V43.4834C28.5938 43.5544 28.6464 43.6255 28.7342 43.6255H31.4908C33.5276 43.6255 35.1605 41.9015 35.0727 39.8221C34.9673 37.8848 33.3169 36.374 31.3855 36.374ZM31.4908 42.4525H29.7877V37.5648H31.4908C32.7726 37.5648 33.8787 38.7201 33.8787 39.9998C33.8612 41.2972 32.7726 42.4525 31.4908 42.4525Z" fill="white" fill-opacity="0.4"/>
  <path d="M41.7974 43.7321H42.7982C42.886 43.7321 42.9563 43.6254 42.9212 43.5366L39.9012 36.3384C39.8836 36.2851 39.8309 36.2495 39.7783 36.2495H39.0759C39.0233 36.2495 38.9706 36.2851 38.953 36.3384L35.9331 43.5366C35.8979 43.6254 35.9682 43.7321 36.056 43.7321H37.0568C37.1094 43.7321 37.1621 43.6965 37.1797 43.6432L38.04 41.5993H40.8142L41.6745 43.6432C41.7096 43.7143 41.7448 43.7321 41.7974 43.7321ZM38.5316 40.444L39.4447 38.2757L40.3577 40.444H38.5316Z" fill="white" fill-opacity="0.4"/>
  <path d="M22.9225 36.2681C20.8858 36.2681 19.2354 37.9388 19.2354 40.0005C19.2354 42.0622 20.8858 43.7329 22.9225 43.7329C24.9593 43.7329 26.6097 42.0622 26.6097 40.0005C26.6097 37.9388 24.9593 36.2681 22.9225 36.2681ZM22.9225 42.4709C21.5706 42.4709 20.482 41.369 20.482 40.0005C20.482 38.6319 21.5706 37.53 22.9225 37.53C24.2745 37.53 25.3631 38.6319 25.3631 40.0005C25.3631 41.369 24.2745 42.4709 22.9225 42.4709Z" fill="white" fill-opacity="0.4"/>
  <path d="M16.672 36.3036L13.6169 39.3962L10.5619 36.3036C10.5443 36.2858 10.5092 36.2681 10.4741 36.2681H10.1405C10.0702 36.2681 10 36.3214 10 36.4103V43.6084C10 43.6795 10.0527 43.7506 10.1405 43.7506H11.1764C11.2466 43.7506 11.3169 43.6973 11.3169 43.6084V38.9341L13.5467 41.1913C13.5994 41.2446 13.6872 41.2446 13.7399 41.1913L15.9697 38.9341V43.6084C15.9697 43.6795 16.0224 43.7506 16.1102 43.7506H17.1461C17.2164 43.7506 17.2866 43.6973 17.2866 43.6084V36.4103C17.2866 36.3392 17.2339 36.2681 17.1461 36.2681H16.8125C16.7423 36.2681 16.7072 36.2858 16.672 36.3036Z" fill="white" fill-opacity="0.4"/>
  </g>
  <defs>
  <filter id="filter0_d_2330_39976" x="10" y="36.2495" width="60.999" height="8.50098" filterUnits="userSpaceOnUse" color-interpolation-filters="sRGB">
  <feFlood flood-opacity="0" result="BackgroundImageFix"/>
  <feColorMatrix in="SourceAlpha" type="matrix" values="0 0 0 0 0 0 0 0 0 0 0 0 0 0 0 0 0 0 127 0" result="hardAlpha"/>
  <feOffset dx="1" dy="1"/>
  <feComposite in2="hardAlpha" operator="out"/>
  <feColorMatrix type="matrix" values="0 0 0 0 0 0 0 0 0 0 0 0 0 0 0 0 0 0 0.25 0"/>
  <feBlend mode="normal" in2="BackgroundImageFix" result="effect1_dropShadow_2330_39976"/>
  <feBlend mode="normal" in="SourceGraphic" in2="effect1_dropShadow_2330_39976" result="shape"/>
  </filter>
  </defs>
  </svg>
  