<svg width="180" height="152" viewBox="0 0 180 152" fill="none" xmlns="http://www.w3.org/2000/svg">
  <path fill-rule="evenodd" clip-rule="evenodd" d="M113.766 56.2565L179.398 1.28809L180 2.00121L114.368 56.9696L113.766 56.2565ZM0.300781 151.287L65.9327 96.3182L66.5345 97.0313L0.902623 152L0.300781 151.287Z" fill="black" fill-opacity="0.16"/>
  <path fill-rule="evenodd" clip-rule="evenodd" d="M66.4009 56.2565L0.768982 1.28809L0.167145 2.00121L65.799 56.9696L66.4009 56.2565ZM179.866 151.287L114.234 96.3182L113.632 97.0313L179.264 152L179.866 151.287Z" fill="black" fill-opacity="0.16"/>
  <g filter="url(#filter0_d_2330_39935)">
  <path d="M52.2715 76.1625V63.9022C52.2715 63.7549 52.3852 63.6416 52.5331 63.6416H59.0507C59.1985 63.6416 59.3123 63.7549 59.3123 63.9022V76.1625C59.3123 76.3098 59.1985 76.4231 59.0507 76.4231H52.5331C52.3966 76.4231 52.2715 76.3098 52.2715 76.1625Z" fill="white" fill-opacity="0.4"/>
  <path d="M63.7822 76.1625V63.9022C63.7822 63.7549 63.896 63.6416 64.0438 63.6416H70.5614C70.7093 63.6416 70.823 63.7549 70.823 63.9022V76.1625C70.823 76.3098 70.7093 76.4231 70.5614 76.4231H64.0438C63.896 76.4231 63.7822 76.2984 63.7822 76.1625Z" fill="white" fill-opacity="0.4"/>
  <path d="M83.2329 63.6304C83.3808 63.6304 83.4945 63.7437 83.4945 63.891V73.5791C83.4945 74.5422 83.4263 75.494 83.3012 76.4232C82.323 83.4711 77.7618 89.386 71.5059 92.2754C71.3694 92.332 71.2101 92.2754 71.1532 92.1394L68.4916 86.2132C68.4347 86.0773 68.4916 85.93 68.6281 85.862C73.2575 83.6864 76.4537 79.0067 76.4537 73.5791V63.891C76.4537 63.7437 76.5675 63.6304 76.7154 63.6304H83.2329Z" fill="white" fill-opacity="0.4"/>
  <path d="M112.772 63.7774V66.1116C112.772 66.2022 112.852 66.2816 112.943 66.2816H117.14C117.037 67.9926 116.833 71.4259 116.787 72.355C116.685 74.27 116.218 75.7997 115.365 77.0234C114.603 78.1112 113.545 78.9384 112.158 79.5389C112.067 79.5729 112.033 79.6749 112.067 79.7656L113.034 81.8618C113.068 81.9411 113.17 81.9865 113.261 81.9525C116.992 80.3548 119.164 77.1481 119.415 72.8423L119.801 66.2929H126.683V81.5785C126.683 81.6692 126.762 81.7485 126.853 81.7485H129.197C129.288 81.7485 129.367 81.6692 129.367 81.5785V63.7887C129.367 63.6981 129.288 63.6188 129.197 63.6188H112.943C112.852 63.6074 112.772 63.6867 112.772 63.7774Z" fill="white" fill-opacity="0.4"/>
  <path d="M107.869 73.3185H100.612V72.5253H107.63C107.721 72.5253 107.801 72.446 107.801 72.3553V70.9503C107.801 70.8596 107.721 70.7803 107.63 70.7803H100.612V69.9871H107.63C107.721 69.9871 107.801 69.9078 107.801 69.8172V63.8003C107.801 63.7097 107.721 63.6304 107.63 63.6304H91.3646C91.2736 63.6304 91.1939 63.7097 91.1939 63.8003V69.8172C91.1939 69.9078 91.2736 69.9871 91.3646 69.9871H98.3826V70.7803H91.3646C91.2736 70.7803 91.1939 70.8596 91.1939 70.9503V72.3553C91.1939 72.446 91.2736 72.5253 91.3646 72.5253H98.3826V73.3185H91.1257C91.0347 73.3185 90.9551 73.3978 90.9551 73.4884V74.8935C90.9551 74.9841 91.0347 75.0634 91.1257 75.0634H107.869C107.96 75.0634 108.04 74.9841 108.04 74.8935V73.4884C108.04 73.3864 107.96 73.3185 107.869 73.3185ZM105.571 68.2195H100.623V65.3527H105.571V68.2195ZM93.4347 68.2195V65.3527H98.3826V68.2195H93.4347Z" fill="white" fill-opacity="0.4"/>
  <path d="M100.613 79.3575H107.79C107.881 79.3575 107.96 79.2782 107.96 79.1876V77.7825C107.96 77.6919 107.881 77.6126 107.79 77.6126H100.613V75.7203C100.613 75.6296 100.533 75.5503 100.442 75.5503H98.5537C98.4627 75.5503 98.3831 75.6296 98.3831 75.7203V77.6126H91.2058C91.1149 77.6126 91.0352 77.6919 91.0352 77.7825V79.1876C91.0352 79.2782 91.1149 79.3575 91.2058 79.3575H98.3831V79.9921H90.6599C90.5689 79.9921 90.4893 80.0714 90.4893 80.162V81.5671C90.4893 81.6578 90.5689 81.7371 90.6599 81.7371H108.347C108.438 81.7371 108.518 81.6578 108.518 81.5671V80.162C108.518 80.0714 108.438 79.9921 108.347 79.9921H100.624V79.3575H100.613Z" fill="white" fill-opacity="0.4"/>
  <path d="M96.5516 65.9985H94.8113C94.7544 65.9985 94.7203 66.0439 94.7317 66.1005L95.016 67.5169C95.0274 67.5622 95.0615 67.5849 95.0957 67.5849H96.8359C96.8928 67.5849 96.9269 67.5396 96.9156 67.4829L96.6312 66.0665C96.6312 66.0212 96.5971 65.9985 96.5516 65.9985Z" fill="white" fill-opacity="0.4"/>
  <path d="M103.979 67.5169L104.264 66.1005C104.275 66.0439 104.23 65.9985 104.184 65.9985H102.444C102.398 65.9985 102.364 66.0325 102.364 66.0665L102.08 67.4829C102.069 67.5396 102.114 67.5849 102.16 67.5849H103.9C103.945 67.5849 103.979 67.5622 103.979 67.5169Z" fill="white" fill-opacity="0.4"/>
  <path d="M105.81 77.1366H107.551C107.608 77.1366 107.642 77.0913 107.63 77.0347L107.346 75.6183C107.335 75.573 107.301 75.5503 107.266 75.5503H105.526C105.469 75.5503 105.435 75.5956 105.447 75.6523L105.731 77.0687C105.731 77.1027 105.765 77.1366 105.81 77.1366Z" fill="white" fill-opacity="0.4"/>
  <path d="M102.443 77.1366H104.184C104.24 77.1366 104.275 77.0913 104.263 77.0347L103.979 75.6183C103.967 75.573 103.933 75.5503 103.899 75.5503H102.159C102.102 75.5503 102.068 75.5956 102.079 75.6523L102.364 77.0687C102.364 77.1027 102.398 77.1366 102.443 77.1366Z" fill="white" fill-opacity="0.4"/>
  <path d="M93.2763 77.0574L93.5607 75.641C93.572 75.5844 93.5265 75.5391 93.481 75.5391H91.7408C91.6953 75.5391 91.6611 75.5731 91.6611 75.607L91.3768 77.0234C91.3654 77.0801 91.4109 77.1254 91.4564 77.1254H93.1967C93.2308 77.1367 93.2649 77.1028 93.2763 77.0574Z" fill="white" fill-opacity="0.4"/>
  <path d="M96.6425 77.0574L96.9269 75.641C96.9383 75.5844 96.8928 75.5391 96.8473 75.5391H95.107C95.0615 75.5391 95.0273 75.5731 95.0273 75.607L94.743 77.0234C94.7316 77.0801 94.7771 77.1254 94.8226 77.1254H96.5629C96.597 77.1367 96.6311 77.1028 96.6425 77.0574Z" fill="white" fill-opacity="0.4"/>
  <path d="M122.441 88.6153C121.508 88.6153 120.769 87.8108 120.871 86.8703C120.951 86.1451 121.553 85.5559 122.293 85.4879C122.759 85.4426 123.18 85.6012 123.498 85.8845C123.533 85.9185 123.589 85.9185 123.612 85.8845L124.067 85.4313C124.101 85.3973 124.101 85.3406 124.067 85.3066C123.578 84.8534 122.884 84.6041 122.134 84.6947C121.064 84.8307 120.2 85.7032 120.075 86.7797C119.916 88.2187 121.03 89.4311 122.441 89.4311C123.066 89.4311 123.635 89.1932 124.067 88.7966C124.101 88.7626 124.101 88.7059 124.067 88.6719L123.612 88.2187C123.578 88.1847 123.533 88.1847 123.498 88.2187C123.214 88.4567 122.839 88.6153 122.441 88.6153Z" fill="white" fill-opacity="0.4"/>
  <path d="M127.741 88.6153C126.809 88.6153 126.069 87.8108 126.172 86.8703C126.251 86.1451 126.854 85.5559 127.594 85.4879C128.06 85.4426 128.481 85.6012 128.799 85.8845C128.833 85.9185 128.89 85.9185 128.913 85.8845L129.368 85.4313C129.402 85.3973 129.402 85.3406 129.368 85.3066C128.879 84.8534 128.185 84.6041 127.434 84.6947C126.365 84.8307 125.501 85.7032 125.376 86.7797C125.216 88.2187 126.331 89.4311 127.741 89.4311C128.367 89.4311 128.936 89.1932 129.368 88.7966C129.402 88.7626 129.402 88.7059 129.368 88.6719L128.913 88.2187C128.879 88.1847 128.833 88.1847 128.799 88.2187C128.515 88.4567 128.151 88.6153 127.741 88.6153Z" fill="white" fill-opacity="0.4"/>
  <path d="M118.903 89.4194H118.312C118.266 89.4194 118.221 89.3854 118.221 89.3288V88.7396C118.221 88.6942 118.255 88.6489 118.312 88.6489H118.903C118.949 88.6489 118.994 88.6829 118.994 88.7396V89.3288C118.994 89.3741 118.949 89.4194 118.903 89.4194Z" fill="white" fill-opacity="0.4"/>
  <path d="M114.854 84.6719C113.535 84.6719 112.466 85.737 112.466 87.0514C112.466 88.3658 113.535 89.4309 114.854 89.4309C116.174 89.4309 117.243 88.3658 117.243 87.0514C117.243 85.737 116.174 84.6719 114.854 84.6719ZM114.854 88.6378C113.979 88.6378 113.273 87.9352 113.273 87.0627C113.273 86.1902 113.979 85.4877 114.854 85.4877C115.73 85.4877 116.436 86.1902 116.436 87.0627C116.436 87.9239 115.73 88.6378 114.854 88.6378Z" fill="white" fill-opacity="0.4"/>
  <path d="M104.379 84.7397H102.661C102.616 84.7397 102.57 84.7737 102.57 84.8304V89.2722C102.57 89.3175 102.604 89.3628 102.661 89.3628H104.447C105.767 89.3628 106.824 88.2637 106.767 86.938C106.699 85.7029 105.63 84.7397 104.379 84.7397ZM104.447 88.615H103.344V85.4989H104.447C105.277 85.4989 105.994 86.2355 105.994 87.0513C105.983 87.8785 105.277 88.615 104.447 88.615Z" fill="white" fill-opacity="0.4"/>
  <path d="M111.123 89.431H111.772C111.829 89.431 111.874 89.363 111.851 89.3064L109.895 84.7173C109.884 84.6833 109.849 84.6606 109.815 84.6606H109.36C109.326 84.6606 109.292 84.6833 109.281 84.7173L107.324 89.3064C107.302 89.363 107.347 89.431 107.404 89.431H108.052C108.086 89.431 108.121 89.4084 108.132 89.3744L108.689 88.0713H110.486L111.044 89.3744C111.067 89.4197 111.089 89.431 111.123 89.431ZM109.008 87.3348L109.599 85.9524L110.191 87.3348H109.008Z" fill="white" fill-opacity="0.4"/>
  <path d="M98.8955 84.6719C97.576 84.6719 96.5068 85.737 96.5068 87.0514C96.5068 88.3658 97.576 89.4309 98.8955 89.4309C100.215 89.4309 101.284 88.3658 101.284 87.0514C101.284 85.737 100.215 84.6719 98.8955 84.6719ZM98.8955 88.6264C98.0196 88.6264 97.3144 87.9239 97.3144 87.0514C97.3144 86.1789 98.0196 85.4764 98.8955 85.4764C99.7713 85.4764 100.477 86.1789 100.477 87.0514C100.477 87.9239 99.7713 88.6264 98.8955 88.6264Z" fill="white" fill-opacity="0.4"/>
  <path d="M94.8467 84.6945L92.8676 86.6661L90.8884 84.6945C90.877 84.6832 90.8543 84.6719 90.8315 84.6719H90.6154C90.5699 84.6719 90.5244 84.7059 90.5244 84.7625V89.3516C90.5244 89.3969 90.5585 89.4423 90.6154 89.4423H91.2865C91.332 89.4423 91.3775 89.4083 91.3775 89.3516V86.3715L92.8221 87.8106C92.8562 87.8446 92.913 87.8446 92.9472 87.8106L94.3917 86.3715V89.3516C94.3917 89.3969 94.4259 89.4423 94.4827 89.4423H95.1538C95.1993 89.4423 95.2448 89.4083 95.2448 89.3516V84.7625C95.2448 84.7172 95.2107 84.6719 95.1538 84.6719H94.9377C94.8922 84.6719 94.8695 84.6832 94.8467 84.6945Z" fill="white" fill-opacity="0.4"/>
  </g>
  <path fill-rule="evenodd" clip-rule="evenodd" d="M179.097 0L113.465 54.9684L114.067 55.6815L179.699 0.713126L179.097 0ZM65.6319 95.0301L0 149.999L0.601842 150.712L66.2337 95.7432L65.6319 95.0301ZM0.467617 0.713272L66.1321 55.6817L66.7337 54.9684L1.06928 0L0.467617 0.713272ZM113.989 95.7434L179.097 150.246L179.699 149.533L114.591 95.0301L113.989 95.7434Z" fill="white" fill-opacity="0.3"/>
  <defs>
  <filter id="filter0_d_2330_39935" x="48.6318" y="60.5586" width="85.1709" height="34.9932" filterUnits="userSpaceOnUse" color-interpolation-filters="sRGB">
  <feFlood flood-opacity="0" result="BackgroundImageFix"/>
  <feColorMatrix in="SourceAlpha" type="matrix" values="0 0 0 0 0 0 0 0 0 0 0 0 0 0 0 0 0 0 127 0" result="hardAlpha"/>
  <feOffset dx="1" dy="1"/>
  <feComposite in2="hardAlpha" operator="out"/>
  <feColorMatrix type="matrix" values="0 0 0 0 0 0 0 0 0 0 0 0 0 0 0 0 0 0 0.15 0"/>
  <feBlend mode="normal" in2="BackgroundImageFix" result="effect1_dropShadow_2330_39935"/>
  <feBlend mode="normal" in="SourceGraphic" in2="effect1_dropShadow_2330_39935" result="shape"/>
  </filter>
  </defs>
  </svg>
  